<?xml version="1.0" encoding="UTF-8" standalone="no"?>
<svg
   height="561.53998"
   viewBox="-4 -3.9 64.700205 62.303427"
   width="562.41486"
   version="1.1"
   id="svg1"
   sodipodi:docname="evonik.svg"
   inkscape:version="1.3.2 (091e20e, 2023-11-25)"
   xmlns:inkscape="http://www.inkscape.org/namespaces/inkscape"
   xmlns:sodipodi="http://sodipodi.sourceforge.net/DTD/sodipodi-0.dtd"
   xmlns="http://www.w3.org/2000/svg"
   xmlns:svg="http://www.w3.org/2000/svg">
  <defs
     id="defs1" />
  <sodipodi:namedview
     id="namedview1"
     pagecolor="#ffffff"
     bordercolor="#000000"
     borderopacity="0.25"
     inkscape:showpageshadow="2"
     inkscape:pageopacity="0.0"
     inkscape:pagecheckerboard="0"
     inkscape:deskcolor="#d1d1d1"
     inkscape:zoom="0.346"
     inkscape:cx="911.84971"
     inkscape:cy="258.67052"
     inkscape:window-width="1696"
     inkscape:window-height="1212"
     inkscape:window-x="287"
     inkscape:window-y="1575"
     inkscape:window-maximized="0"
     inkscape:current-layer="svg1" />
  <switch
     id="switch1"
     transform="translate(-3.9997984,-5.166265)">
    <path
       d="m 32.3,7.4 c -13.8,0 -25,11.1 -25,25 0,13.8 11.1,25 25,25 7.3,0 14.2,-3.1 18.9,-8.6 H 25 c -0.3,0 -0.6,-0.1 -0.8,-0.2 -8.9,-4.5 -12.5,-15.4 -8,-24.3 1.7,-3.5 4.6,-6.3 8,-8 C 24.4,16 24.7,16 25,16 h 14.6 c 0.3,0 0.6,0.1 0.8,0.2 2.6,1.3 4.8,3.2 6.5,5.5 0.3,0.4 0.3,1.1 -0.2,1.4 -0.2,0.1 -0.4,0.2 -0.7,0.2 H 26.5 c -5,3.2 -6.4,9.9 -3.1,14.9 0.8,1.2 1.9,2.3 3.1,3.1 H 62 c 0.6,0 1,0.4 1.1,0.9 0,0.1 0,0.3 -0.1,0.4 C 57.3,59.6 39,68.7 22,63 5.1,57.3 -4,39 1.7,22.1 7.4,5.2 25.8,-3.9 42.7,1.8 c 13.2,4.4 22,16.8 22,30.6 0,0.9 0,1.8 -0.1,2.8 0,0.5 -0.5,0.9 -1,0.9 H 28.9 c -0.4,0 -0.8,-0.2 -0.9,-0.6 -0.9,-2 -0.9,-4.2 0,-6.1 0.2,-0.4 0.5,-0.6 0.9,-0.6 H 57 C 55.2,16.4 44.7,7.4 32.3,7.4 Z"
       fill="#991d85"
       id="path1"
       sodipodi:nodetypes="ssscscccsssccscccscccscscssccscs" />
  </switch>
</svg>
